<svg width="277" height="58" fill="none" xmlns="http://www.w3.org/2000/svg"><path d="M2.512 11.39V6.946h4.802v4.444H2.512zm0 20.61V13.85h4.802V32H2.512zm28.35 0H26.06v-9.263c0-1.96-.103-3.224-.308-3.794-.205-.58-.54-1.03-1.008-1.35-.456-.319-1.008-.478-1.658-.478a3.85 3.85 0 00-2.238.683 3.49 3.49 0 00-1.368 1.812c-.239.752-.358 2.142-.358 4.17V32h-4.803V13.85h4.46v2.667c1.584-2.051 3.578-3.077 5.982-3.077 1.06 0 2.028.194 2.905.582.878.376 1.538.86 1.983 1.452a5.13 5.13 0 01.94 2.017c.182.752.273 1.828.273 3.23V32zm11.978 0l-7.314-18.15h5.041l3.418 9.263.991 3.093c.262-.786.428-1.304.496-1.555.16-.512.33-1.025.513-1.538l3.452-9.262h4.939L47.164 32H42.84zm27.103-5.776l4.785.803c-.615 1.754-1.59 3.093-2.923 4.016-1.321.911-2.979 1.367-4.973 1.367-3.156 0-5.491-1.03-7.007-3.093-1.196-1.652-1.794-3.737-1.794-6.255 0-3.008.786-5.36 2.358-7.058 1.573-1.71 3.56-2.564 5.965-2.564 2.7 0 4.83.895 6.391 2.684 1.561 1.777 2.307 4.506 2.24 8.186H62.952c.034 1.424.421 2.535 1.162 3.332.74.786 1.663 1.18 2.769 1.18.751 0 1.384-.206 1.897-.616.512-.41.9-1.07 1.162-1.982zm.273-4.854c-.034-1.39-.393-2.444-1.077-3.162-.683-.729-1.515-1.093-2.495-1.093-1.048 0-1.914.381-2.597 1.145-.684.763-1.02 1.8-1.009 3.11h7.178zM85.612 32H80.81V13.85h4.46v2.581c.764-1.219 1.447-2.022 2.05-2.41.616-.387 1.311-.58 2.086-.58 1.094 0 2.147.301 3.161.905l-1.486 4.187c-.81-.524-1.561-.786-2.256-.786-.672 0-1.242.188-1.71.564-.466.365-.837 1.031-1.11 2-.262.968-.393 2.996-.393 6.084V32zm19.463-18.15v3.829h-3.281v7.314c0 1.481.028 2.347.085 2.598.069.24.211.438.428.598.228.16.501.24.82.24.444 0 1.088-.155 1.931-.462l.41 3.725c-1.116.479-2.381.718-3.794.718-.866 0-1.646-.142-2.341-.427-.695-.296-1.208-.672-1.538-1.128-.32-.467-.541-1.094-.667-1.88-.102-.558-.153-1.686-.153-3.384V17.68H94.77V13.85h2.205v-3.606l4.819-2.803v6.409h3.281zm15.943 12.374l4.785.803c-.615 1.754-1.589 3.093-2.922 4.016-1.322.911-2.98 1.367-4.973 1.367-3.156 0-5.492-1.03-7.007-3.093-1.197-1.652-1.795-3.737-1.795-6.255 0-3.008.786-5.36 2.359-7.058 1.572-1.71 3.56-2.564 5.964-2.564 2.7 0 4.831.895 6.392 2.684 1.561 1.777 2.307 4.506 2.238 8.186h-12.031c.034 1.424.422 2.535 1.162 3.332.741.786 1.664 1.18 2.769 1.18.752 0 1.384-.206 1.897-.616.513-.41.9-1.07 1.162-1.982zm.273-4.854c-.034-1.39-.393-2.444-1.076-3.162-.684-.729-1.516-1.093-2.495-1.093-1.049 0-1.914.381-2.598 1.145-.684.763-1.02 1.8-1.008 3.11h7.177zM129.783 32l6.545-9.348-6.272-8.801h5.862l3.213 4.99 3.384-4.99h5.64l-6.153 8.596L148.719 32h-5.896l-3.692-5.623L135.406 32h-5.623zm32.212-18.15v3.829h-3.281v7.314c0 1.481.029 2.347.086 2.598.068.24.21.438.427.598.228.16.501.24.82.24.444 0 1.088-.155 1.931-.462l.41 3.725c-1.116.479-2.381.718-3.794.718-.865 0-1.646-.142-2.341-.427-.695-.296-1.208-.672-1.538-1.128-.319-.467-.541-1.094-.666-1.88-.103-.558-.154-1.686-.154-3.384V17.68h-2.205V13.85h2.205v-3.606l4.819-2.803v6.409h3.281zm4.322 8.819c0-1.595.393-3.139 1.179-4.631.786-1.493 1.897-2.632 3.333-3.418 1.447-.786 3.059-1.18 4.836-1.18 2.746 0 4.996.895 6.751 2.684 1.754 1.777 2.631 4.027 2.631 6.75 0 2.746-.888 5.024-2.666 6.836-1.766 1.8-3.993 2.7-6.682 2.7-1.663 0-3.252-.376-4.768-1.128-1.504-.752-2.649-1.851-3.435-3.298-.786-1.458-1.179-3.23-1.179-5.315zm4.922.256c0 1.8.427 3.179 1.282 4.136.854.957 1.908 1.436 3.161 1.436 1.253 0 2.302-.479 3.145-1.436.854-.957 1.281-2.347 1.281-4.17 0-1.777-.427-3.144-1.281-4.101-.843-.957-1.892-1.436-3.145-1.436-1.253 0-2.307.479-3.161 1.436-.855.957-1.282 2.335-1.282 4.135z" fill="#0f81be"/><path d="M190.924 32v-4.802h4.803V32h-4.803zm27.667-12.783l-4.734.854c-.16-.945-.524-1.657-1.094-2.136-.558-.479-1.287-.718-2.187-.718-1.197 0-2.154.416-2.872 1.248-.706.82-1.059 2.199-1.059 4.136 0 2.153.359 3.674 1.077 4.563.729.888 1.703 1.333 2.922 1.333.911 0 1.658-.257 2.239-.77.581-.524.991-1.418 1.23-2.683l4.717.804c-.49 2.164-1.43 3.8-2.82 4.904-1.39 1.106-3.253 1.658-5.588 1.658-2.655 0-4.774-.837-6.358-2.512-1.572-1.675-2.358-3.993-2.358-6.956 0-2.996.792-5.326 2.375-6.99 1.584-1.674 3.726-2.512 6.426-2.512 2.211 0 3.965.479 5.264 1.436 1.31.946 2.25 2.393 2.82 4.34zm4.646 3.452c0-1.595.393-3.139 1.179-4.631.786-1.493 1.897-2.632 3.333-3.418 1.447-.786 3.059-1.18 4.836-1.18 2.746 0 4.996.895 6.751 2.684 1.754 1.777 2.632 4.027 2.632 6.75 0 2.746-.889 5.024-2.666 6.836-1.766 1.8-3.994 2.7-6.683 2.7-1.663 0-3.252-.376-4.768-1.128-1.504-.752-2.649-1.851-3.435-3.298-.786-1.458-1.179-3.23-1.179-5.315zm4.922.256c0 1.8.427 3.179 1.282 4.136.854.957 1.908 1.436 3.161 1.436 1.254 0 2.302-.479 3.145-1.436.854-.957 1.282-2.347 1.282-4.17 0-1.777-.428-3.144-1.282-4.101-.843-.957-1.891-1.436-3.145-1.436-1.253 0-2.307.479-3.161 1.436-.855.957-1.282 2.335-1.282 4.135zm19.327-9.074h4.426v2.478c1.583-1.926 3.469-2.889 5.657-2.889 1.162 0 2.17.24 3.024.718.855.479 1.556 1.202 2.103 2.17.797-.968 1.657-1.691 2.58-2.17a6.331 6.331 0 012.957-.718c1.333 0 2.461.274 3.383.82.923.536 1.613 1.328 2.068 2.376.331.775.496 2.028.496 3.76V32h-4.802V21.627c0-1.8-.166-2.963-.496-3.487-.444-.684-1.128-1.025-2.051-1.025-.672 0-1.304.205-1.897.615-.592.41-1.019 1.014-1.281 1.811-.263.787-.394 2.034-.394 3.743V32h-4.802v-9.946c0-1.766-.085-2.906-.256-3.418-.171-.513-.439-.895-.803-1.145-.354-.25-.838-.376-1.453-.376-.741 0-1.407.2-1.999.598-.593.399-1.02.974-1.282 1.726-.251.752-.376 2-.376 3.743V32h-4.802V13.85z" fill="#FFBA00"/><path d="M1.395 54V41.831h8.209v1.436h-6.6v3.769h5.712v1.436H3.005V54h-1.61zm17.003-2.839l1.544.191c-.244.902-.695 1.602-1.353 2.1-.659.498-1.5.747-2.524.747-1.29 0-2.313-.395-3.071-1.187-.753-.797-1.129-1.912-1.129-3.345 0-1.483.382-2.634 1.146-3.453.763-.82 1.754-1.229 2.971-1.229 1.179 0 2.142.402 2.889 1.204.747.802 1.12 1.931 1.12 3.387 0 .088-.002.221-.008.398H13.41c.055.969.33 1.71.822 2.225.492.514 1.107.772 1.843.772.547 0 1.015-.144 1.402-.432.388-.288.695-.747.922-1.378zm-4.906-2.415h4.922c-.066-.742-.254-1.298-.564-1.669-.476-.575-1.093-.863-1.851-.863-.686 0-1.265.23-1.735.689-.465.46-.722 1.073-.772 1.843zM22.66 54v-8.815h1.344v1.336c.343-.625.659-1.038.947-1.237.293-.199.614-.299.962-.299.504 0 1.016.16 1.536.482l-.515 1.386c-.365-.216-.73-.324-1.095-.324-.327 0-.62.1-.88.3-.26.193-.446.464-.556.813a5.82 5.82 0 00-.25 1.743V54H22.66zm6.51 0v-8.815h1.345v1.336c.343-.625.659-1.038.947-1.237.293-.199.614-.299.963-.299.503 0 1.015.16 1.535.482l-.514 1.386c-.366-.216-.731-.324-1.096-.324-.327 0-.62.1-.88.3-.26.193-.446.464-.556.813a5.82 5.82 0 00-.25 1.743V54h-1.493zm12.28-1.087c-.553.47-1.087.802-1.601.996-.51.193-1.057.29-1.644.29-.968 0-1.713-.235-2.233-.705-.52-.476-.78-1.082-.78-1.818 0-.432.097-.825.29-1.179.2-.36.457-.647.773-.863.32-.216.68-.38 1.079-.49.293-.077.736-.152 1.328-.224 1.206-.144 2.094-.316 2.664-.515.006-.205.009-.334.009-.39 0-.609-.142-1.038-.424-1.287-.382-.337-.949-.506-1.701-.506-.703 0-1.223.125-1.561.374-.332.243-.578.678-.739 1.303l-1.46-.2c.132-.625.35-1.128.655-1.51.304-.387.744-.684 1.32-.888.575-.21 1.242-.316 2-.316.753 0 1.364.089 1.835.266.47.177.816.401 1.038.672.22.266.376.603.464 1.013.05.255.075.714.075 1.378v1.992c0 1.39.03 2.269.091 2.64.067.365.194.716.382 1.054h-1.56a3.17 3.17 0 01-.3-1.087zm-.124-3.337c-.542.221-1.355.41-2.44.564-.614.089-1.049.188-1.303.299a1.29 1.29 0 00-.797 1.195c0 .399.15.73.448.996.304.266.747.399 1.328.399.576 0 1.088-.125 1.536-.374.448-.254.777-.6.988-1.037.16-.338.24-.836.24-1.495v-.547zM46.011 54v-8.815h1.337v1.236a3.105 3.105 0 011.104-1.037c.459-.266.982-.399 1.569-.399.652 0 1.187.136 1.602.407.42.271.716.65.888 1.137.697-1.029 1.605-1.544 2.722-1.544.875 0 1.547.244 2.018.73.47.482.705 1.227.705 2.234V54H56.47v-5.553c0-.598-.05-1.027-.15-1.287a1.227 1.227 0 00-.522-.639 1.645 1.645 0 00-.897-.24c-.62 0-1.134.207-1.544.622-.41.41-.614 1.068-.614 1.975V54H51.25v-5.727c0-.665-.122-1.163-.365-1.495-.244-.332-.642-.498-1.196-.498-.42 0-.81.111-1.17.332a1.89 1.89 0 00-.772.971c-.16.427-.24 1.04-.24 1.843V54H46.01zm21.046-2.839l1.544.191c-.243.902-.695 1.602-1.353 2.1-.659.498-1.5.747-2.523.747-1.29 0-2.314-.395-3.072-1.187-.752-.797-1.129-1.912-1.129-3.345 0-1.483.382-2.634 1.146-3.453.764-.82 1.754-1.229 2.971-1.229 1.18 0 2.142.402 2.89 1.204.746.802 1.12 1.931 1.12 3.387 0 .088-.003.221-.008.398h-6.575c.056.969.33 1.71.822 2.225.493.514 1.107.772 1.843.772.548 0 1.015-.144 1.403-.432.387-.288.694-.747.921-1.378zm-4.906-2.415h4.923c-.067-.742-.255-1.298-.565-1.669-.476-.575-1.093-.863-1.85-.863-.687 0-1.265.23-1.736.689-.465.46-.722 1.073-.772 1.843zM71.335 54v-8.815h1.345v1.253c.647-.968 1.583-1.453 2.806-1.453.53 0 1.018.097 1.46.29.449.189.784.438 1.005.748.221.31.376.678.465 1.104.055.277.083.76.083 1.453V54h-1.494v-5.362c0-.609-.058-1.063-.175-1.362a1.41 1.41 0 00-.622-.722 1.923 1.923 0 00-1.038-.274c-.636 0-1.187.202-1.652.606-.459.404-.689 1.17-.689 2.3V54h-1.494zm13.575-1.336l.216 1.32c-.42.088-.797.132-1.129.132-.542 0-.963-.086-1.261-.257a1.445 1.445 0 01-.631-.672c-.122-.283-.183-.872-.183-1.768v-5.072h-1.096v-1.162h1.096V43l1.486-.896v3.08h1.502v1.162h-1.502V51.5c0 .427.025.7.075.822a.654.654 0 00.257.29c.122.073.293.109.515.109.166 0 .384-.02.655-.058zm8.072.249c-.553.47-1.087.802-1.602.996-.51.193-1.057.29-1.644.29-.968 0-1.712-.235-2.233-.705-.52-.476-.78-1.082-.78-1.818 0-.432.097-.825.29-1.179.2-.36.457-.647.773-.863.32-.216.68-.38 1.079-.49.293-.077.736-.152 1.328-.224 1.206-.144 2.094-.316 2.665-.515.005-.205.008-.334.008-.39 0-.609-.141-1.038-.424-1.287-.381-.337-.949-.506-1.701-.506-.703 0-1.223.125-1.56.374-.333.243-.579.678-.74 1.303l-1.46-.2c.132-.625.351-1.128.655-1.51.305-.387.745-.684 1.32-.888.576-.21 1.242-.316 2-.316.753 0 1.365.089 1.835.266.47.177.816.401 1.038.672.221.266.376.603.465 1.013.05.255.074.714.074 1.378v1.992c0 1.39.03 2.269.092 2.64.066.365.193.716.381 1.054h-1.56a3.168 3.168 0 01-.299-1.087zm-.124-3.337c-.543.221-1.356.41-2.44.564-.615.089-1.05.188-1.304.299a1.29 1.29 0 00-.797 1.195c0 .399.15.73.448.996.305.266.747.399 1.328.399.576 0 1.088-.125 1.536-.374.448-.254.777-.6.988-1.037.16-.338.24-.836.24-1.495v-.547zm4.087 1.793l1.477-.233c.083.592.313 1.046.69 1.362.381.315.912.473 1.593.473.686 0 1.195-.139 1.527-.415.332-.283.498-.612.498-.988 0-.338-.146-.603-.439-.797-.205-.133-.714-.302-1.528-.506-1.096-.277-1.856-.515-2.282-.714a2.275 2.275 0 01-.963-.839 2.264 2.264 0 01-.324-1.187c0-.392.088-.755.266-1.087.182-.338.428-.617.738-.838.233-.172.548-.316.947-.432a4.463 4.463 0 011.294-.183c.692 0 1.298.1 1.818.3.526.198.913.47 1.162.813.249.337.421.791.515 1.361l-1.461.2c-.066-.455-.26-.809-.581-1.063-.315-.255-.764-.382-1.345-.382-.686 0-1.176.113-1.469.34-.293.227-.44.493-.44.797 0 .194.061.368.183.523.121.16.313.293.573.398.149.056.589.183 1.319.382 1.057.282 1.793.515 2.208.698.421.177.75.437.988.78s.357.769.357 1.278c0 .498-.147.969-.44 1.411-.288.438-.705.778-1.253 1.021-.548.238-1.168.357-1.86.357-1.145 0-2.02-.238-2.623-.714-.597-.476-.98-1.181-1.145-2.116zm21.564-.208l1.544.191c-.244.902-.695 1.602-1.353 2.1-.659.498-1.5.747-2.524.747-1.289 0-2.313-.395-3.071-1.187-.753-.797-1.129-1.912-1.129-3.345 0-1.483.382-2.634 1.145-3.453.764-.82 1.755-1.229 2.972-1.229 1.179 0 2.142.402 2.889 1.204.747.802 1.12 1.931 1.12 3.387 0 .088-.002.221-.008.398h-6.574c.055.969.329 1.71.822 2.225.492.514 1.106.772 1.842.772.548 0 1.016-.144 1.403-.432.388-.288.695-.747.922-1.378zm-4.906-2.415h4.922c-.066-.742-.254-1.298-.564-1.669-.476-.575-1.093-.863-1.851-.863-.687 0-1.265.23-1.735.689-.465.46-.722 1.073-.772 1.843zM126.276 54l4.674-12.169h1.735L137.665 54h-1.834l-1.42-3.685h-5.088L127.986 54h-1.71zm3.512-4.997h4.125l-1.27-3.37a33.392 33.392 0 01-.863-2.524c-.155.78-.374 1.555-.656 2.325l-1.336 3.569zm9.823 8.375V45.185h1.361v1.145c.321-.448.684-.783 1.088-1.004.404-.227.893-.34 1.469-.34.752 0 1.416.193 1.992.58.576.388 1.01.936 1.303 1.644.294.703.44 1.475.44 2.316 0 .902-.163 1.715-.49 2.44-.321.72-.791 1.273-1.411 1.66a3.62 3.62 0 01-1.942.573c-.498 0-.946-.105-1.345-.315a3.07 3.07 0 01-.971-.797v4.291h-1.494zm1.353-7.736c0 1.134.23 1.973.689 2.515.459.543 1.015.814 1.668.814.664 0 1.232-.28 1.702-.839.476-.564.714-1.436.714-2.614 0-1.124-.233-1.965-.697-2.524-.46-.559-1.01-.838-1.652-.838-.637 0-1.201.299-1.694.896-.487.592-.73 1.456-.73 2.59zM149.891 54V41.831h1.494V54h-1.494zm4.676-10.45V41.83h1.494v1.718h-1.494zm0 10.45v-8.815h1.494V54h-1.494zm10.379-3.229l1.47.19c-.161 1.014-.573 1.808-1.237 2.383-.659.57-1.469.855-2.432.855-1.207 0-2.178-.393-2.914-1.178-.73-.792-1.095-1.924-1.095-3.395 0-.952.157-1.785.473-2.499.315-.714.794-1.248 1.436-1.602.647-.36 1.35-.54 2.108-.54.957 0 1.74.244 2.349.73.609.482.999 1.168 1.171 2.06l-1.453.224c-.138-.593-.385-1.038-.739-1.337-.348-.299-.772-.448-1.27-.448-.752 0-1.364.271-1.834.813-.471.537-.706 1.39-.706 2.557 0 1.184.227 2.045.681 2.581.454.537 1.046.806 1.776.806.587 0 1.077-.18 1.469-.54.393-.36.642-.913.747-1.66zm9.35 2.142c-.553.47-1.087.802-1.602.996a4.582 4.582 0 01-1.643.29c-.969 0-1.713-.235-2.233-.705-.52-.476-.78-1.082-.78-1.818 0-.432.097-.825.29-1.179.199-.36.457-.647.772-.863.321-.216.681-.38 1.079-.49.294-.077.736-.152 1.328-.224 1.207-.144 2.095-.316 2.665-.515.006-.205.008-.334.008-.39 0-.609-.141-1.038-.423-1.287-.382-.337-.949-.506-1.702-.506-.703 0-1.223.125-1.56.374-.332.243-.579.678-.739 1.303l-1.461-.2c.133-.625.351-1.128.656-1.51.304-.387.744-.684 1.32-.888.575-.21 1.242-.316 2-.316.753 0 1.364.089 1.835.266.47.177.816.401 1.037.672.222.266.376.603.465 1.013.05.255.075.714.075 1.378v1.992c0 1.39.03 2.269.091 2.64a3.4 3.4 0 00.382 1.054h-1.561a3.183 3.183 0 01-.299-1.087zm-.124-3.337c-.542.221-1.356.41-2.44.564-.615.089-1.049.188-1.304.299a1.29 1.29 0 00-.797 1.195c0 .399.15.73.449.996.304.266.747.399 1.328.399.575 0 1.087-.125 1.535-.374.449-.254.778-.6.988-1.037.161-.338.241-.836.241-1.495v-.547zm7.947 3.088l.216 1.32a5.55 5.55 0 01-1.129.132c-.542 0-.963-.086-1.262-.257a1.451 1.451 0 01-.631-.672c-.121-.283-.182-.872-.182-1.768v-5.072h-1.096v-1.162h1.096V43l1.486-.896v3.08h1.502v1.162h-1.502V51.5c0 .427.025.7.074.822a.66.66 0 00.258.29c.121.073.293.109.514.109.166 0 .385-.02.656-.058zm2.328-9.115v-1.718h1.494v1.718h-1.494zm0 10.451v-8.815h1.494V54h-1.494zm7.075 0l-3.353-8.815h1.577l1.892 5.279c.205.57.393 1.162.565 1.776.133-.465.318-1.023.556-1.677l1.959-5.378h1.536L192.917 54h-1.395zm6.345-4.408c0-1.632.454-2.841 1.362-3.627.758-.653 1.682-.98 2.772-.98 1.212 0 2.203.399 2.972 1.196.769.791 1.154 1.887 1.154 3.287 0 1.134-.172 2.028-.515 2.68a3.59 3.59 0 01-1.486 1.512c-.647.36-1.356.54-2.125.54-1.234 0-2.233-.397-2.996-1.188-.759-.791-1.138-1.931-1.138-3.42zm1.536 0c0 1.13.246 1.976.739 2.54a2.372 2.372 0 001.859.839c.742 0 1.359-.282 1.851-.847.493-.564.739-1.425.739-2.582 0-1.09-.249-1.914-.747-2.473-.493-.565-1.107-.847-1.843-.847-.747 0-1.367.28-1.859.838-.493.56-.739 1.403-.739 2.532zm8.736 1.777l1.477-.233c.083.592.313 1.046.689 1.362.382.315.913.473 1.594.473.686 0 1.195-.139 1.527-.415.332-.283.498-.612.498-.988 0-.338-.146-.603-.44-.797-.204-.133-.713-.302-1.527-.506-1.096-.277-1.856-.515-2.283-.714a2.274 2.274 0 01-.962-.839 2.263 2.263 0 01-.324-1.187c0-.392.088-.755.265-1.087.183-.338.429-.617.739-.838.233-.172.548-.316.946-.432a4.466 4.466 0 011.295-.183c.692 0 1.298.1 1.818.3.526.198.913.47 1.162.813.249.337.421.791.515 1.361l-1.461.2c-.066-.455-.26-.809-.581-1.063-.315-.255-.764-.382-1.345-.382-.686 0-1.176.113-1.469.34-.293.227-.44.493-.44.797 0 .194.061.368.183.523.121.16.312.293.572.398.15.056.59.183 1.32.382 1.057.282 1.793.515 2.208.698.421.177.75.437.988.78s.357.769.357 1.278c0 .498-.147.969-.44 1.411-.288.438-.705.778-1.253 1.021-.548.238-1.168.357-1.86.357-1.145 0-2.02-.238-2.623-.714-.597-.476-.979-1.181-1.145-2.116zm15.23-3.296c0-2.02.542-3.6 1.627-4.74 1.085-1.145 2.485-1.718 4.2-1.718 1.124 0 2.136.269 3.038.805a5.232 5.232 0 012.059 2.25c.476.957.714 2.045.714 3.262 0 1.234-.249 2.338-.747 3.312-.498.974-1.204 1.713-2.117 2.216a6.073 6.073 0 01-2.955.748c-1.146 0-2.169-.277-3.071-.83a5.344 5.344 0 01-2.051-2.267 6.865 6.865 0 01-.697-3.038zm1.66.025c0 1.467.393 2.623 1.179 3.47.791.841 1.782 1.262 2.972 1.262 1.212 0 2.208-.426 2.988-1.279.786-.852 1.179-2.061 1.179-3.627 0-.99-.169-1.854-.507-2.59-.332-.742-.822-1.314-1.469-1.718a3.943 3.943 0 00-2.167-.614 4.123 4.123 0 00-2.946 1.178c-.819.78-1.229 2.086-1.229 3.918zM237.749 54v-8.815h1.345v1.253c.648-.968 1.583-1.453 2.806-1.453.531 0 1.018.097 1.461.29.448.189.783.438 1.004.748.221.31.376.678.465 1.104.055.277.083.76.083 1.453V54h-1.494v-5.362c0-.609-.058-1.063-.175-1.362a1.407 1.407 0 00-.622-.722c-.293-.182-.639-.274-1.038-.274-.636 0-1.187.202-1.652.606-.459.404-.689 1.17-.689 2.3V54h-1.494zm10.28 0V41.831h1.494V54h-1.494zm4.677-10.45V41.83h1.494v1.718h-1.494zm0 10.45v-8.815h1.494V54h-1.494zm4.627 0v-8.815h1.344v1.253c.648-.968 1.583-1.453 2.806-1.453.531 0 1.018.097 1.461.29.448.189.783.438 1.004.748.222.31.377.678.465 1.104.055.277.083.76.083 1.453V54h-1.494v-5.362c0-.609-.058-1.063-.174-1.362a1.413 1.413 0 00-.623-.722c-.293-.182-.639-.274-1.038-.274-.636 0-1.187.202-1.651.606-.46.404-.689 1.17-.689 2.3V54h-1.494zm16.347-2.839l1.544.191c-.243.902-.694 1.602-1.353 2.1s-1.5.747-2.523.747c-1.29 0-2.314-.395-3.072-1.187-.752-.797-1.129-1.912-1.129-3.345 0-1.483.382-2.634 1.146-3.453.764-.82 1.754-1.229 2.972-1.229 1.178 0 2.141.402 2.888 1.204.747.802 1.121 1.931 1.121 3.387 0 .088-.003.221-.008.398h-6.575c.056.969.33 1.71.822 2.225.493.514 1.107.772 1.843.772.548 0 1.015-.144 1.403-.432.387-.288.694-.747.921-1.378zm-4.906-2.415h4.923c-.067-.742-.255-1.298-.565-1.669-.476-.575-1.093-.863-1.851-.863-.686 0-1.264.23-1.735.689-.465.46-.722 1.073-.772 1.843z" fill="#777"/></svg>